<?xml version="1.0" standalone="no"?>
<!DOCTYPE svg PUBLIC "-//W3C//DTD SVG 20010904//EN"
 "http://www.w3.org/TR/2001/REC-SVG-20010904/DTD/svg10.dtd">
<svg version="1.0" xmlns="http://www.w3.org/2000/svg"
 width="437.000000pt" height="437.000000pt" viewBox="0 0 437.000000 437.000000"
 preserveAspectRatio="xMidYMid meet">
<metadata>
Created by potrace 1.14, written by Peter Selinger 2001-2017
</metadata>
<g transform="translate(0.000000,437.000000) scale(0.100000,-0.100000)"
fill="#000000" stroke="none">
<path d="M156 3548 c-135 -30 -160 -156 -69 -347 33 -70 130 -222 178 -280
250 -302 517 -540 733 -651 23 -12 44 -26 47 -30 3 -4 -4 -46 -14 -94 -13 -56
-19 -123 -18 -195 0 -92 -3 -114 -20 -143 -30 -50 -63 -152 -79 -238 -12 -69
-13 -207 -1 -255 15 -61 51 -146 84 -194 32 -49 144 -168 184 -196 67 -48 137
-72 229 -79 30 -3 90 -8 133 -11 43 -4 88 -8 99 -10 50 -10 312 -19 538 -18
239 0 623 11 659 18 10 2 40 6 67 9 27 4 82 10 121 15 86 11 136 43 223 142
30 34 69 78 87 98 40 45 89 143 108 217 37 143 5 359 -75 500 -16 29 -27 54
-24 57 6 6 6 162 -1 217 -3 25 -13 74 -22 110 -9 35 -12 65 -7 67 29 10 182
103 256 156 99 71 157 119 242 197 350 324 559 646 525 810 -10 47 -76 106
-127 113 -72 9 -244 -2 -297 -20 -11 -4 -27 -7 -35 -8 -30 -2 -255 -78 -374
-127 -199 -82 -359 -165 -501 -260 -107 -73 -137 -97 -235 -194 l-76 -74 -56
20 c-125 44 -305 73 -458 74 -61 0 -201 -11 -240 -19 -14 -3 -37 -7 -53 -10
-49 -9 -131 -33 -182 -52 l-50 -19 -80 80 c-44 45 -95 92 -113 106 -19 14 -39
30 -45 36 -25 22 -174 122 -232 154 -117 66 -374 189 -425 205 -14 4 -38 13
-55 21 -172 76 -443 127 -549 102z"/>
</g>
</svg>
