<svg height="59" viewBox="295 -1 58 59" width="58" xmlns="http://www.w3.org/2000/svg"><path d="m300.4 0h46.5q.8 0 1.6.3.7.4 1.3.9.6.6.9 1.4.3.8.3 1.6v47.1q0 .9-.3 1.6-.3.8-.9 1.4-.6.5-1.3.9-.8.3-1.6.3h-46.5q-.9 0-1.6-.3-.8-.4-1.3-.9-.6-.6-.9-1.4-.3-.7-.3-1.5v-47.2q0-.8.3-1.6.3-.8.8-1.4.6-.5 1.4-.9.7-.3 1.6-.3z" fill="#f2ba4f"/><g fill="#fff"><path d="m331 46.7h-14.8q-.2 0-.3-.1-.1 0-.3-.1-.1 0-.2-.1-.1-.1-.2-.2-.1-.1-.2-.3 0-.1-.1-.3 0-.1 0-.3 0-.1.1-.2l5.5-21.7q0-.2.2-.4.1-.2.2-.3.2-.2.4-.3.2 0 .4 0h3.7q.2 0 .4 0 .2.1.3.3.2.1.3.3.1.2.2.4l5.6 21.7q.1.1.1.2 0 .2-.1.3 0 .2 0 .3-.1.2-.2.3-.1.1-.2.2-.1.1-.2.1-.2.1-.3.1-.1.1-.3.1m-13.2-2.6h11.6l-5-19.1h-1.7z"/><path d="m323.6 19.3c-2.2 0-4.1-1.2-4.9-3.2-.9-2-.4-4.2 1.1-5.8 1.5-1.5 3.7-1.9 5.7-1.1s3.3 2.7 3.3 4.8q0 1.1-.4 2-.4 1-1.1 1.8-.8.7-1.7 1.1-1 .4-2 .4zm0-8c-1.1 0-2.1.6-2.5 1.6s-.2 2.2.5 3c.8.7 2 1 3 .6s1.6-1.4 1.6-2.5q0-.5-.2-1-.2-.5-.5-.9-.4-.4-.9-.6-.5-.2-1-.2z"/></g></svg>